<?xml version="1.0" encoding="utf-8"?>
<!-- Generator: Adobe Illustrator 20.1.0, SVG Export Plug-In . SVG Version: 6.00 Build 0)  -->
<svg version="1.1" id="Layer_1" xmlns="http://www.w3.org/2000/svg" xmlns:xlink="http://www.w3.org/1999/xlink" x="0px" y="0px"
	 viewBox="0 0 151.6 137.6" style="enable-background:new 0 0 151.6 137.6;" xml:space="preserve">
<style type="text/css">
	.st0{fill:#97B056;}
	.st1{fill:#E3A425;}
	.st2{fill:#DD7626;}
	.st3{fill:none;}
	.st4{fill:#FFFFFF;}
	.st5{fill:none;stroke:#FFFFFF;stroke-width:0.7669;stroke-miterlimit:10;}
	.st6{fill:none;stroke:#97B056;stroke-width:1.0011;stroke-miterlimit:10;}
	.st7{fill:none;stroke:#FFFFFF;stroke-width:0.5778;stroke-miterlimit:10;}
	.st8{fill:none;stroke:#97B056;stroke-width:0.7543;stroke-miterlimit:10;}
	.st9{clip-path:url(#SVGID_2_);}
	.st10{fill:#97B056;stroke:#FFFFFF;stroke-width:0.4237;stroke-miterlimit:10;}
	.st11{fill:#E3A425;stroke:#FFFFFF;stroke-width:0.4771;stroke-miterlimit:10;}
	.st12{fill:#B3B4B4;stroke:#B3B4B4;stroke-width:2.4111;stroke-linejoin:round;stroke-miterlimit:10;}
	.st13{fill:none;stroke:#B3B4B4;stroke-width:2.4111;stroke-miterlimit:10;}
	.st14{fill:none;stroke:#FFFFFF;stroke-width:0.868;stroke-miterlimit:10;}
	.st15{fill:none;stroke:#FFFFFF;stroke-width:0.5482;stroke-miterlimit:10;}
	.st16{fill:none;stroke:#97B056;stroke-width:0.5482;stroke-miterlimit:10;}
	.st17{fill:none;stroke:#FFFFFF;stroke-width:0.684;stroke-miterlimit:10;}
	.st18{fill:none;stroke:#97B056;stroke-width:0.684;stroke-miterlimit:10;}
	.st19{fill:none;stroke:#E3A425;stroke-width:2.5878;stroke-linecap:round;stroke-linejoin:round;stroke-miterlimit:10;}
	.st20{fill:#8E799B;stroke:#E3A425;stroke-width:2.5878;stroke-linecap:round;stroke-linejoin:round;stroke-miterlimit:10;}
	.st21{fill:none;stroke:#FFFFFF;stroke-width:2.3598;stroke-linecap:round;stroke-linejoin:round;stroke-miterlimit:10;}
	.st22{fill:#E3A425;stroke:#E3A425;stroke-width:2.5878;stroke-linecap:round;stroke-miterlimit:10;}
</style>
<g>
	<g>
		<path class="st0" d="M89.4,31.3c-1.5-0.9-3.3-0.6-4.4,0.6l0.2-2.3c0.1-0.8-0.1-1.6-0.4-2.4c-1.1-2.4-4-3.4-6.4-2.3
			c-2.4,1.1-3.4,4-2.3,6.4l1.1,2.4c-0.2-0.1-0.4-0.2-0.5-0.3c-1.8-0.8-3.9,0-4.7,1.8c-0.8,1.8,0,3.9,1.8,4.7l4.4,2
			c-0.9,0.1-1.7,0.6-2.1,1.5c-0.6,1.3,0,2.8,1.3,3.4l5.3,2.4c0.4,0.2,0.9,0.2,1.3,0.1c0.4,0,0.8-0.2,1.1-0.5l4.1-4.1
			c0.1-0.1,0.3-0.3,0.4-0.5c0.7-1.2,0.3-2.8-0.9-3.5c-0.6-0.4-1.3-0.4-1.9-0.3l3.4-3.4c0.2-0.2,0.4-0.4,0.5-0.7
			C91.7,34.5,91.1,32.3,89.4,31.3z M83.1,44.9L83.1,44.9L83.1,44.9L83.1,44.9z"/>
		<g>
			<line class="st15" x1="82.2" y1="40" x2="77.6" y2="37.4"/>
			<line class="st15" x1="82.2" y1="40" x2="85.6" y2="35.9"/>
			<line class="st15" x1="83.4" y1="46.7" x2="79.5" y2="44.5"/>
			<line class="st15" x1="83.4" y1="46.7" x2="86.2" y2="43.3"/>
			<line class="st15" x1="80.5" y1="30.9" x2="84.6" y2="53.6"/>
		</g>
	</g>
	<line class="st16" x1="83.8" y1="49.3" x2="84.5" y2="53"/>
</g>
<g>
	<g>
		<path class="st0" d="M112.1,30c-1.3-1.7-3.6-2.1-5.5-1.2l1.2-2.7c0.4-0.9,0.6-1.9,0.5-3c-0.3-3.3-3.2-5.7-6.5-5.5
			c-3.3,0.3-5.7,3.2-5.5,6.5l0.3,3.3c-0.2-0.2-0.3-0.4-0.5-0.6c-1.7-1.7-4.6-1.7-6.3,0c-1.7,1.7-1.7,4.6,0,6.3l4.3,4.2
			c-1.1-0.3-2.2,0-3.1,0.9c-1.2,1.3-1.2,3.3,0,4.5l5.2,5.1c0.4,0.4,0.9,0.6,1.4,0.6c0.5,0.1,1,0.1,1.5-0.1l6.6-3.1
			c0.2-0.1,0.5-0.3,0.7-0.4c1.4-1.1,1.6-3.1,0.5-4.5c-0.6-0.7-1.3-1.1-2.1-1.2l5.4-2.5c0.3-0.1,0.6-0.3,0.9-0.6
			C113.3,34.8,113.6,32,112.1,30z M98.8,43.2L98.8,43.2L98.8,43.2L98.8,43.2z"/>
		<g>
			<line class="st17" x1="99.9" y1="37" x2="95.6" y2="32"/>
			<line class="st17" x1="99.9" y1="37" x2="105.6" y2="33.8"/>
			<line class="st17" x1="98.4" y1="45.4" x2="94.8" y2="41.2"/>
			<line class="st17" x1="98.4" y1="45.4" x2="103.2" y2="42.7"/>
			<line class="st17" x1="101.9" y1="25.7" x2="96.9" y2="54.1"/>
		</g>
	</g>
	<line class="st18" x1="97.8" y1="48.7" x2="97" y2="53.3"/>
</g>
<g>
	<g>
		<path class="st0" d="M55.3,27.6l-3.7-4.8c-0.1-0.2-0.3-0.3-0.5-0.4c-0.5-0.2-1.1,0.1-1.3,0.7l-1.9,5.7c-0.4,1.3-0.2,2.8,0.7,3.9
			c0.4,0.6,1,1,1.6,1.3l3.4,20.4l4.7-0.8l-3.4-20.4C56.4,31.8,56.6,29.3,55.3,27.6z"/>
	</g>
	<path class="st4" d="M52,30.8c-0.1,0-0.1,0-0.2,0L48,28.1c-0.1-0.1-0.2-0.3-0.1-0.4c0.1-0.1,0.3-0.2,0.4-0.1l3.8,2.7
		c0.1,0.1,0.2,0.3,0.1,0.4C52.2,30.8,52.1,30.8,52,30.8z"/>
	<path class="st4" d="M52,30.8c-0.1,0-0.1,0-0.2,0c-0.1-0.1-0.2-0.3-0.1-0.4l2.7-3.8c0.1-0.1,0.3-0.2,0.4-0.1
		c0.1,0.1,0.2,0.3,0.1,0.4l-2.7,3.8C52.2,30.8,52.1,30.8,52,30.8z"/>
	<g>
		<path class="st4" d="M51.4,27c-0.1,0-0.1,0-0.2,0L49,25.3c-0.1-0.1-0.2-0.3-0.1-0.4c0.1-0.1,0.3-0.2,0.4-0.1l2.2,1.6
			c0.1,0.1,0.2,0.3,0.1,0.4C51.5,26.9,51.5,26.9,51.4,27z"/>
		<path class="st4" d="M51.4,27c-0.1,0-0.1,0-0.2,0c-0.1-0.1-0.2-0.3-0.1-0.4l1.6-2.2c0.1-0.1,0.3-0.2,0.4-0.1
			c0.1,0.1,0.2,0.3,0.1,0.4l-1.6,2.2C51.5,26.9,51.5,26.9,51.4,27z"/>
	</g>
	<g>
		<path class="st4" d="M53.5,28.7c-0.1,0-0.1,0-0.2,0l-2.1-1.5c-0.1-0.1-0.2-0.3-0.1-0.4c0.1-0.1,0.3-0.2,0.4-0.1l2.1,1.5
			c0.1,0.1,0.2,0.3,0.1,0.4C53.7,28.7,53.6,28.7,53.5,28.7z"/>
		<path class="st4" d="M49.9,29.3c-0.1,0-0.1,0-0.2,0c-0.1-0.1-0.2-0.3-0.1-0.4l1.5-2.1c0.1-0.1,0.3-0.2,0.4-0.1
			c0.1,0.1,0.2,0.3,0.1,0.4l-1.5,2.1C50.1,29.3,50,29.3,49.9,29.3z"/>
	</g>
	<rect x="50.2" y="33.6" transform="matrix(0.9865 -0.1635 0.1635 0.9865 -4.835 9.0468)" class="st4" width="4.7" height="0.6"/>
	<g>
		<path class="st0" d="M63.3,22l-3.7-4.8c-0.1-0.2-0.3-0.3-0.5-0.4c-0.5-0.2-1.1,0.1-1.3,0.7l-1.9,5.7c-0.4,1.3-0.2,2.8,0.7,3.9
			c0.4,0.6,1,1,1.6,1.3L62.2,53l4.7-0.8l-4.1-24.5C64.4,26.2,64.6,23.7,63.3,22z"/>
	</g>
	<path class="st4" d="M60,25.3c-0.1,0-0.1,0-0.2,0L56,22.5c-0.1-0.1-0.2-0.3-0.1-0.4c0.1-0.1,0.3-0.2,0.4-0.1l3.8,2.7
		c0.1,0.1,0.2,0.3,0.1,0.4C60.2,25.2,60.1,25.2,60,25.3z"/>
	<path class="st4" d="M60,25.3c-0.1,0-0.1,0-0.2,0c-0.1-0.1-0.2-0.3-0.1-0.4l2.7-3.8c0.1-0.1,0.3-0.2,0.4-0.1
		c0.1,0.1,0.2,0.3,0.1,0.4l-2.7,3.8C60.2,25.2,60.1,25.2,60,25.3z"/>
	<g>
		<path class="st4" d="M59.4,21.4c-0.1,0-0.1,0-0.2,0L57,19.7c-0.1-0.1-0.2-0.3-0.1-0.4c0.1-0.1,0.3-0.2,0.4-0.1l2.2,1.6
			c0.1,0.1,0.2,0.3,0.1,0.4C59.5,21.3,59.4,21.4,59.4,21.4z"/>
		<path class="st4" d="M59.4,21.4c-0.1,0-0.1,0-0.2,0C59,21.2,59,21.1,59.1,21l1.6-2.2c0.1-0.1,0.3-0.2,0.4-0.1
			c0.1,0.1,0.2,0.3,0.1,0.4l-1.6,2.2C59.5,21.3,59.4,21.4,59.4,21.4z"/>
	</g>
	<g>
		<path class="st4" d="M61.5,23.2c-0.1,0-0.1,0-0.2,0l-2.1-1.5c-0.1-0.1-0.2-0.3-0.1-0.4c0.1-0.1,0.3-0.2,0.4-0.1l2.1,1.5
			c0.1,0.1,0.2,0.3,0.1,0.4C61.7,23.1,61.6,23.1,61.5,23.2z"/>
		<path class="st4" d="M57.9,23.8c-0.1,0-0.1,0-0.2,0c-0.1-0.1-0.2-0.3-0.1-0.4l1.5-2.1c0.1-0.1,0.3-0.2,0.4-0.1
			c0.1,0.1,0.2,0.3,0.1,0.4l-1.5,2.1C58.1,23.7,58,23.7,57.9,23.8z"/>
	</g>
	<rect x="58.2" y="28" transform="matrix(0.9865 -0.1635 0.1635 0.9865 -3.8163 10.2766)" class="st4" width="4.7" height="0.6"/>
</g>
<path class="st4" d="M48.9,47.9c0.4,0,17.4-1.3,17.4-1.3l33.8,0v33.3H48.9V47.9z"/>
<g>
	<rect x="50.8" y="46.4" class="st4" width="53.1" height="52.3"/>
	<g>
		<polygon class="st2" points="88.9,34.1 66.2,34.1 63.3,38 91.8,38 		"/>
		
			<rect x="56" y="45.3" transform="matrix(-1.836970e-16 1 -1 -1.836970e-16 112.516 -17.9944)" class="st2" width="18.5" height="3.9"/>
		
			<rect x="80.6" y="45.3" transform="matrix(-1.836970e-16 1 -1 -1.836970e-16 137.1008 -42.5791)" class="st2" width="18.5" height="3.9"/>
	</g>
</g>
<rect x="50.8" y="48.4" class="st2" width="53.1" height="52.3"/>
<g>
	<g>
		<polygon class="st4" points="92.3,73.4 92.3,68.8 75.3,69.1 75.4,73.6 		"/>
		<polygon class="st4" points="86.5,63 86.7,59.4 70.2,59.5 70.2,63.1 		"/>
		<polygon class="st4" points="74.8,78.7 74.7,88.9 83.7,88.8 83.9,78.6 		"/>
		<polygon class="st4" points="92.3,68 92.3,59.5 87.7,59.5 87.1,68.1 		"/>
		<polygon class="st4" points="64,89 69,88.9 69.1,83.6 64.1,83.7 		"/>
		<polygon class="st4" points="84.9,74.3 84.6,88.8 92.4,88.8 92.3,74.2 		"/>
		<polygon class="st4" points="64.1,82.8 69.2,82.8 69.3,59.5 64.3,59.5 		"/>
	</g>
</g>
<g>
	<g>
		<path class="st1" d="M106.2,95.6h-3.8c-1.8,0-3.3-1.5-3.3-3.3V88c0-1.8,1.5-3.3,3.3-3.3h3.8V95.6z"/>
	</g>
	<path class="st1" d="M106.9,95.6h-4.2V84.7h4.2c0.8,0,1.5,0.7,1.5,1.5v7.9C108.4,94.9,107.7,95.6,106.9,95.6z"/>
</g>
<g>
	<g>
		<path class="st1" d="M52.1,84.7h3.8c1.8,0,3.3,1.5,3.3,3.3l0,4.3c0,1.8-1.5,3.3-3.3,3.3h-3.8V84.7z"/>
	</g>
	<path class="st1" d="M51.4,84.7h4.2v10.9h-4.2c-0.8,0-1.5-0.7-1.5-1.5v-7.9C49.9,85.4,50.6,84.7,51.4,84.7z"/>
</g>
<polygon class="st1" points="18.7,53.3 50.8,67 50.8,76.8 18.7,63.1 "/>
<polygon class="st1" points="18.7,71.8 50.8,85.5 50.8,95.3 18.7,81.6 "/>
<rect x="12.7" y="42.4" class="st4" width="16" height="63.1"/>
<line class="st19" x1="98.6" y1="108.2" x2="107.4" y2="108.2"/>
<path class="st20" d="M107.4,108.2c2.9,0,5.2,2.3,5.2,5.2v3.5h-5.2V108.2z"/>
<line class="st19" x1="89" y1="114.8" x2="85.5" y2="108.7"/>
<line class="st19" x1="93.4" y1="114.8" x2="90" y2="109.4"/>
<path class="st19" d="M102.5,115.4c2,0,3.6-1.6,3.6-3.6c0-2-1.6-3.6-3.6-3.6"/>
<polyline class="st21" points="98.2,114.2 90.3,114.2 80.6,108.8 "/>
<polyline class="st19" points="107.4,115.4 89.9,115.4 80.3,110.1 "/>
<path class="st19" d="M114.2,119.4h-13.3c-2.8,0-5.5-0.7-7.9-2.1l-12.8-7.2"/>
<rect x="107.5" y="113.3" class="st22" width="23.4" height="6"/>
<rect x="107.5" y="109.7" class="st22" width="2.5" height="7.2"/>
<polygon class="st1" points="107.9,118.9 107.9,116.3 93.4,116.3 100.7,118.9 "/>
</svg>
