<?xml version="1.0" encoding="utf-8"?>
<!-- Generator: Adobe Illustrator 20.1.0, SVG Export Plug-In . SVG Version: 6.00 Build 0)  -->
<svg version="1.1" id="Layer_1" xmlns="http://www.w3.org/2000/svg" xmlns:xlink="http://www.w3.org/1999/xlink" x="0px" y="0px"
	 viewBox="0 0 151.6 137.6" style="enable-background:new 0 0 151.6 137.6;" xml:space="preserve">
<style type="text/css">
	.st0{fill:#97B056;}
	.st1{fill:#E3A425;}
	.st2{fill:#DD7626;}
	.st3{fill:none;}
	.st4{fill:#FFFFFF;}
	.st5{fill:none;stroke:#FFFFFF;stroke-width:0.7669;stroke-miterlimit:10;}
	.st6{fill:none;stroke:#97B056;stroke-width:1.0011;stroke-miterlimit:10;}
	.st7{fill:none;stroke:#FFFFFF;stroke-width:0.5778;stroke-miterlimit:10;}
	.st8{fill:none;stroke:#97B056;stroke-width:0.7543;stroke-miterlimit:10;}
	.st9{clip-path:url(#SVGID_2_);}
	.st10{fill:#97B056;stroke:#FFFFFF;stroke-width:0.4237;stroke-miterlimit:10;}
	.st11{fill:#E3A425;stroke:#FFFFFF;stroke-width:0.4771;stroke-miterlimit:10;}
	.st12{fill:#B3B4B4;stroke:#B3B4B4;stroke-width:2.4111;stroke-linejoin:round;stroke-miterlimit:10;}
	.st13{fill:none;stroke:#B3B4B4;stroke-width:2.4111;stroke-miterlimit:10;}
	.st14{fill:none;stroke:#FFFFFF;stroke-width:0.868;stroke-miterlimit:10;}
	.st15{fill:none;stroke:#FFFFFF;stroke-width:0.5482;stroke-miterlimit:10;}
	.st16{fill:none;stroke:#97B056;stroke-width:0.5482;stroke-miterlimit:10;}
	.st17{fill:none;stroke:#FFFFFF;stroke-width:0.684;stroke-miterlimit:10;}
	.st18{fill:none;stroke:#97B056;stroke-width:0.684;stroke-miterlimit:10;}
	.st19{fill:none;stroke:#E3A425;stroke-width:2.5878;stroke-linecap:round;stroke-linejoin:round;stroke-miterlimit:10;}
	.st20{fill:#8E799B;stroke:#E3A425;stroke-width:2.5878;stroke-linecap:round;stroke-linejoin:round;stroke-miterlimit:10;}
	.st21{fill:none;stroke:#FFFFFF;stroke-width:2.3598;stroke-linecap:round;stroke-linejoin:round;stroke-miterlimit:10;}
	.st22{fill:#E3A425;stroke:#E3A425;stroke-width:2.5878;stroke-linecap:round;stroke-miterlimit:10;}
</style>
<g>
	<path class="st3" d="M70.2,63.6C70.2,63.6,70.2,63.6,70.2,63.6C70.2,63.6,70.2,63.6,70.2,63.6C70.2,63.6,70.2,63.6,70.2,63.6
		C70.2,63.6,70.2,63.6,70.2,63.6L70.2,63.6z"/>
	<path class="st2" d="M68.5,63.3l1.2,0.3l-0.4,1.3l0.9,0.2l0.4-1.3l1.2,0.3c2.4,0.7,4.9-0.7,5.6-3.1l-1.6-0.5
		c-0.9-0.3-1.9-0.2-2.8,0.1c0.1-0.2,0.1-0.4,0.2-0.6c0.5-1.7,0.2-3.4-0.7-4.5c-1.3,0.5-2.5,1.8-2.9,3.5c-0.1,0.2-0.1,0.4-0.1,0.6
		C68.8,59,68,58.5,67,58.2l-1.6-0.4C64.7,60.1,66.1,62.6,68.5,63.3z M70.2,63.6C70.2,63.6,70.2,63.6,70.2,63.6
		C70.2,63.6,70.2,63.6,70.2,63.6L70.2,63.6C70.2,63.6,70.2,63.6,70.2,63.6C70.2,63.6,70.2,63.6,70.2,63.6z"/>
	<path class="st2" d="M70.6,66l-2.1-0.6c-2.7-0.8-5.5,1-6,3.7l11,3.6C74.9,70,73.5,66.8,70.6,66z"/>
	<path class="st2" d="M73.2,73.1l-10.8-3.2c0,0,0,0.1,0,0.1l0.2,3.7l9.1,2L73.2,73.1z"/>
	<polygon class="st2" points="71,76.4 62.4,74.2 62.4,77.3 69.3,79 	"/>
	<polygon class="st2" points="69.1,79.9 62.8,77.9 62.7,80.3 67.8,81.7 	"/>
	<path class="st2" d="M62.6,81.2l0.2,4.7c0,0.5,0.4,0.9,0.8,1c0.5,0.1,0.9-0.1,1.2-0.5l2.6-4.3L62.6,81.2z"/>
</g>
<g>
	<g>
		<path class="st0" d="M50.3,80.4l-4.2-5.4c-0.1-0.2-0.3-0.3-0.6-0.4c-0.6-0.2-1.3,0.1-1.5,0.8l-2.2,6.5c-0.5,1.5-0.3,3.2,0.7,4.5
			c0.5,0.7,1.1,1.2,1.9,1.5l3.9,23.3l5.3-0.9l-3.9-23.3C51.6,85.2,51.9,82.4,50.3,80.4z"/>
	</g>
	<path class="st4" d="M46.6,84.1c-0.1,0-0.2,0-0.2-0.1L42,81c-0.1-0.1-0.2-0.3-0.1-0.4c0.1-0.1,0.3-0.2,0.4-0.1l4.4,3.1
		c0.1,0.1,0.2,0.3,0.1,0.4C46.8,84.1,46.7,84.1,46.6,84.1z"/>
	<path class="st4" d="M46.6,84.1c-0.1,0-0.2,0-0.2-0.1c-0.1-0.1-0.2-0.3-0.1-0.4l3.1-4.4c0.1-0.1,0.3-0.2,0.4-0.1
		c0.1,0.1,0.2,0.3,0.1,0.4L46.8,84C46.8,84.1,46.7,84.1,46.6,84.1z"/>
	<g>
		<path class="st4" d="M45.9,79.7c-0.1,0-0.2,0-0.2-0.1l-2.5-1.8c-0.1-0.1-0.2-0.3-0.1-0.4c0.1-0.1,0.3-0.2,0.4-0.1l2.5,1.8
			c0.1,0.1,0.2,0.3,0.1,0.4C46,79.6,45.9,79.7,45.9,79.7z"/>
		<path class="st4" d="M45.9,79.7c-0.1,0-0.2,0-0.2-0.1c-0.1-0.1-0.2-0.3-0.1-0.4l1.8-2.5c0.1-0.1,0.3-0.2,0.4-0.1
			c0.1,0.1,0.2,0.3,0.1,0.4l-1.8,2.5C46,79.6,45.9,79.7,45.9,79.7z"/>
	</g>
	<g>
		<path class="st4" d="M48.3,81.7c-0.1,0-0.2,0-0.2-0.1L45.7,80c-0.1-0.1-0.2-0.3-0.1-0.4c0.1-0.1,0.3-0.2,0.4-0.1l2.4,1.7
			c0.1,0.1,0.2,0.3,0.1,0.4C48.5,81.7,48.4,81.7,48.3,81.7z"/>
		<path class="st4" d="M44.2,82.4c-0.1,0-0.2,0-0.2-0.1c-0.1-0.1-0.2-0.3-0.1-0.4l1.7-2.4c0.1-0.1,0.3-0.2,0.4-0.1
			c0.1,0.1,0.2,0.3,0.1,0.4l-1.7,2.4C44.4,82.4,44.3,82.4,44.2,82.4z"/>
	</g>
	<rect x="44.5" y="87.3" transform="matrix(0.9865 -0.1635 0.1635 0.9865 -13.6918 8.893)" class="st4" width="5.4" height="0.6"/>
	<g>
		<path class="st0" d="M59.4,74l-4.2-5.4c-0.1-0.2-0.3-0.3-0.6-0.4c-0.6-0.2-1.3,0.1-1.5,0.8L51,75.4c-0.5,1.5-0.3,3.2,0.7,4.5
			c0.5,0.7,1.1,1.2,1.9,1.5l4.6,28l5.3-0.9l-4.6-28C60.7,78.8,61,76,59.4,74z"/>
	</g>
	<path class="st4" d="M55.7,77.8c-0.1,0-0.2,0-0.2-0.1l-4.4-3.1c-0.1-0.1-0.2-0.3-0.1-0.4c0.1-0.1,0.3-0.2,0.4-0.1l4.4,3.1
		c0.1,0.1,0.2,0.3,0.1,0.4C55.9,77.7,55.8,77.7,55.7,77.8z"/>
	<path class="st4" d="M55.7,77.8c-0.1,0-0.2,0-0.2-0.1c-0.1-0.1-0.2-0.3-0.1-0.4l3.1-4.4c0.1-0.1,0.3-0.2,0.4-0.1
		c0.1,0.1,0.2,0.3,0.1,0.4l-3.1,4.4C55.9,77.7,55.8,77.7,55.7,77.8z"/>
	<g>
		<path class="st4" d="M55,73.3c-0.1,0-0.2,0-0.2-0.1l-2.5-1.8c-0.1-0.1-0.2-0.3-0.1-0.4c0.1-0.1,0.3-0.2,0.4-0.1l2.5,1.8
			c0.1,0.1,0.2,0.3,0.1,0.4C55.1,73.3,55.1,73.3,55,73.3z"/>
		<path class="st4" d="M55,73.3c-0.1,0-0.2,0-0.2-0.1c-0.1-0.1-0.2-0.3-0.1-0.4l1.8-2.5c0.1-0.1,0.3-0.2,0.4-0.1
			c0.1,0.1,0.2,0.3,0.1,0.4l-1.8,2.5C55.1,73.3,55.1,73.3,55,73.3z"/>
	</g>
	<g>
		<path class="st4" d="M57.4,75.4c-0.1,0-0.2,0-0.2-0.1l-2.4-1.7c-0.1-0.1-0.2-0.3-0.1-0.4c0.1-0.1,0.3-0.2,0.4-0.1l2.4,1.7
			c0.1,0.1,0.2,0.3,0.1,0.4C57.6,75.3,57.5,75.3,57.4,75.4z"/>
		<path class="st4" d="M53.3,76c-0.1,0-0.2,0-0.2-0.1c-0.1-0.1-0.2-0.3-0.1-0.4l1.7-2.4c0.1-0.1,0.3-0.2,0.4-0.1
			c0.1,0.1,0.2,0.3,0.1,0.4l-1.7,2.4C53.5,76,53.4,76,53.3,76z"/>
	</g>
	
		<rect x="53.6" y="80.9" transform="matrix(0.9865 -0.1635 0.1635 0.9865 -12.5275 10.2985)" class="st4" width="5.4" height="0.6"/>
</g>
<g>
	<g>
		<path class="st0" d="M108.2,87.4c-1.2-1.5-3.2-1.8-4.8-1l1.1-2.3c0.4-0.8,0.5-1.7,0.5-2.6c-0.2-2.9-2.8-5-5.6-4.8
			c-2.9,0.2-5,2.8-4.8,5.6l0.2,2.9c-0.1-0.2-0.3-0.4-0.4-0.5c-1.5-1.5-4-1.5-5.5,0c-1.5,1.5-1.5,4,0,5.5l3.7,3.7
			c-0.9-0.2-1.9,0-2.7,0.7c-1.1,1.1-1.1,2.9,0,4l4.5,4.5c0.3,0.3,0.8,0.5,1.3,0.6c0.4,0.1,0.9,0.1,1.3-0.1l5.8-2.7
			c0.2-0.1,0.4-0.2,0.6-0.4c1.2-1,1.4-2.7,0.4-3.9c-0.5-0.6-1.2-0.9-1.9-1l4.8-2.2c0.3-0.1,0.6-0.3,0.8-0.5
			C109.3,91.5,109.5,89,108.2,87.4z M96.6,98.9L96.6,98.9L96.6,98.9L96.6,98.9z"/>
		<g>
			<line class="st5" x1="97.5" y1="93.5" x2="93.8" y2="89.1"/>
			<line class="st5" x1="97.5" y1="93.5" x2="102.5" y2="90.6"/>
			<line class="st5" x1="96.2" y1="100.8" x2="93.1" y2="97.1"/>
			<line class="st5" x1="96.2" y1="100.8" x2="100.4" y2="98.4"/>
			<line class="st5" x1="99.3" y1="83.5" x2="94.9" y2="108.4"/>
		</g>
	</g>
	<line class="st6" x1="95.7" y1="103.7" x2="95" y2="107.7"/>
</g>
<g>
	<g>
		<path class="st0" d="M101.1,42.9c-0.3-1.4-1.6-2.3-2.9-2.2l1.5-1.2c0.5-0.4,0.9-1,1.2-1.6c0.8-2-0.3-4.3-2.3-5.1
			c-2-0.8-4.3,0.3-5.1,2.3l-0.8,2.1c0-0.2-0.1-0.3-0.1-0.5c-0.6-1.5-2.2-2.3-3.8-1.7c-1.5,0.6-2.3,2.2-1.7,3.8l1.4,3.7
			c-0.6-0.5-1.3-0.6-2.1-0.4c-1.1,0.4-1.7,1.6-1.3,2.7l1.7,4.5c0.1,0.3,0.4,0.6,0.7,0.8c0.3,0.2,0.6,0.4,1,0.4l4.8,0
			c0.2,0,0.3,0,0.5-0.1c1.1-0.3,1.8-1.4,1.6-2.6c-0.1-0.6-0.5-1-0.9-1.3l3.9,0c0.2,0,0.5,0,0.7-0.1
			C100.5,46.1,101.5,44.5,101.1,42.9z M89.5,47L89.5,47L89.5,47L89.5,47z"/>
		<g>
			<line class="st7" x1="91.8" y1="43.7" x2="90.7" y2="39.5"/>
			<line class="st7" x1="91.8" y1="43.7" x2="96.2" y2="43.3"/>
			<line class="st7" x1="88.6" y1="48.2" x2="87.7" y2="44.7"/>
			<line class="st7" x1="88.6" y1="48.2" x2="92.2" y2="48"/>
			<line class="st7" x1="96.2" y1="37.5" x2="85.3" y2="53"/>
		</g>
	</g>
	<line class="st8" x1="87.4" y1="50" x2="85.6" y2="52.6"/>
</g>
<g>
	<path class="st2" d="M76.1,84.2c-2.2,6.2-11.5,7.4-11.5,14.9c0,4,2.9,10,11.5,10s11.5-6,11.5-10C87.6,91.6,78.2,90.5,76.1,84.2z"/>
	<g>
		<defs>
			<path id="SVGID_1_" d="M76.1,84.2c-2.2,6.2-11.5,7.4-11.5,14.9c0,4,2.9,10,11.5,10s11.5-6,11.5-10C87.6,91.6,78.2,90.5,76.1,84.2
				z"/>
		</defs>
		<use xlink:href="#SVGID_1_"  style="overflow:visible;fill:#E3A425;"/>
		<clipPath id="SVGID_2_">
			<use xlink:href="#SVGID_1_"  style="overflow:visible;"/>
		</clipPath>
		<g class="st9">
			<g>
				<path class="st4" d="M72.7,111.7c-2.5-3.1-5.7-6.9-5.7-11c0-4.4,1.2-6.7,2.6-9.7c0.4-0.7,0.7-1.5,1.1-2.3l0.6,0.3
					c-0.4,0.8-0.7,1.6-1.1,2.3c-1.4,2.9-2.6,5.2-2.6,9.4c0,3.9,3.1,7.6,5.5,10.6L72.7,111.7z"/>
				<path class="st4" d="M75.1,110.5c-1.6-1.4-5-4.5-5-9.7c0-5.5,1.7-10.3,3.7-15.5l0.6,0.2c-2,5.1-3.7,9.8-3.7,15.3
					c0,5,3.2,7.9,4.8,9.3L75.1,110.5z"/>
				<path class="st4" d="M75.8,109.3c-0.1-0.2-0.2-0.5-0.4-0.7c-0.9-1.8-1.8-3.4-1.8-7.6c0-4.3,0.9-11.2,2.2-16.8l0.6,0.1
					c-1.3,5.6-2.2,12.5-2.2,16.7c0,4,0.8,5.5,1.8,7.3c0.1,0.2,0.2,0.5,0.4,0.7L75.8,109.3z"/>
			</g>
		</g>
		<g class="st9">
			<g>
				<path class="st4" d="M79.4,111.7c2.5-3.1,5.7-6.9,5.7-11c0-4.4-1.2-6.7-2.6-9.7c-0.4-0.7-0.7-1.5-1.1-2.3L80.8,89
					c0.4,0.8,0.7,1.6,1.1,2.3c1.4,2.9,2.6,5.2,2.6,9.4c0,3.9-3.1,7.6-5.5,10.6L79.4,111.7z"/>
				<path class="st4" d="M77,110.5c1.6-1.4,5-4.5,5-9.7c0-5.5-1.7-10.3-3.7-15.5l-0.6,0.2c2,5.1,3.7,9.8,3.7,15.3
					c0,5-3.2,7.9-4.8,9.3L77,110.5z"/>
				<path class="st4" d="M76.3,109.3c0.1-0.2,0.2-0.5,0.4-0.7c0.9-1.8,1.8-3.4,1.8-7.6c0-4.3-0.9-11.2-2.2-16.8l-0.6,0.1
					c1.3,5.6,2.2,12.5,2.2,16.7c0,4-0.8,5.5-1.8,7.3c-0.1,0.2-0.2,0.5-0.4,0.7L76.3,109.3z"/>
			</g>
		</g>
	</g>
</g>
<g>
	<path class="st2" d="M83.5,25.9l3.7,1.1c1.4,0.4,1.9,2.3,0.8,3.3l-2.9,2.8c-1.1,1.1-3,0.5-3.3-1l-0.8-3.9
		C80.6,26.7,82,25.5,83.5,25.9z"/>
	<g>
		<path class="st2" d="M89.3,25l0.3-1.1l-1.1-0.3c-1.2-0.4-2.4,0.3-2.8,1.5l-0.3,1.1l1.1,0.3C87.6,26.9,88.9,26.2,89.3,25z"/>
	</g>
	<g>
		<path class="st2" d="M83.4,23.7l0.3-0.8l0.8,0.3c0.9,0.3,1.5,1.3,1.2,2.2l-0.3,0.8l-0.8-0.3C83.6,25.6,83.1,24.6,83.4,23.7z"/>
	</g>
	<ellipse transform="matrix(0.7159 -0.6982 0.6982 0.7159 4.7875 66.4541)" class="st4" cx="84.1" cy="27.3" rx="0.2" ry="0.2"/>
	<ellipse transform="matrix(0.7159 -0.6982 0.6982 0.7159 3.6083 65.5411)" class="st4" cx="82.3" cy="28.3" rx="0.2" ry="0.2"/>
	<ellipse transform="matrix(0.7159 -0.6982 0.6982 0.7159 0.9933 67.1535)" class="st4" cx="83" cy="32.4" rx="0.2" ry="0.2"/>
	<ellipse transform="matrix(0.7159 -0.6982 0.6982 0.7159 4.2358 67.8114)" class="st4" cx="85.4" cy="28.7" rx="0.2" ry="0.2"/>
	<ellipse transform="matrix(0.7159 -0.6982 0.6982 0.7159 2.4616 66.4838)" class="st4" cx="82.9" cy="30.2" rx="0.2" ry="0.2"/>
	<ellipse transform="matrix(0.7159 -0.6982 0.6982 0.7159 1.7707 68.133)" class="st4" cx="84.6" cy="31.9" rx="0.2" ry="0.2"/>
	<ellipse transform="matrix(0.7159 -0.6982 0.6982 0.7159 3.1991 68.8753)" class="st4" cx="86.2" cy="30.5" rx="0.2" ry="0.2"/>
	<ellipse transform="matrix(0.7159 -0.6982 0.6982 0.7159 4.763 69.2388)" class="st4" cx="87.5" cy="28.8" rx="0.2" ry="0.2"/>
</g>
<g>
	<path class="st2" d="M55,21.9l4-1.6c1.6-0.6,3.3,0.6,3.1,2.4l-0.5,4.5c-0.2,1.8-2.3,2.6-3.7,1.5l-3.5-2.9
		C53.1,24.6,53.4,22.5,55,21.9z"/>
	<g>
		<path class="st2" d="M59.4,16.9l-0.5-1.2l-1.2,0.5c-1.3,0.5-1.9,2-1.4,3.3l0.5,1.2l1.2-0.5C59.3,19.7,59.9,18.2,59.4,16.9z"/>
	</g>
	<g>
		<path class="st2" d="M53.2,20L52.9,19l0.9-0.4c1-0.4,2.2,0.1,2.7,1.1l0.4,0.9l-0.9,0.4C54.9,21.5,53.7,21,53.2,20z"/>
	</g>
	<ellipse transform="matrix(0.1138 -0.9935 0.9935 0.1138 27.4828 76.2749)" class="st4" cx="56.5" cy="22.7" rx="0.3" ry="0.3"/>
	<ellipse transform="matrix(0.1138 -0.9935 0.9935 0.1138 24.6843 77.3507)" class="st4" cx="55.7" cy="24.8" rx="0.3" ry="0.3"/>
	<ellipse transform="matrix(0.1138 -0.9935 0.9935 0.1138 24.731 83.5268)" class="st4" cx="59.2" cy="27.9" rx="0.3" ry="0.3"/>
	<ellipse transform="matrix(0.1138 -0.9935 0.9935 0.1138 29.2412 78.638)" class="st4" cx="58.7" cy="22.9" rx="0.3" ry="0.3"/>
	<ellipse transform="matrix(0.1138 -0.9935 0.9935 0.1138 25.1099 80.3047)" class="st4" cx="57.6" cy="26.1" rx="0.3" ry="0.3"/>
	<ellipse transform="matrix(0.1138 -0.9935 0.9935 0.1138 27.2251 83.2113)" class="st4" cx="60.3" cy="26.3" rx="0.3" ry="0.3"/>
	<ellipse transform="matrix(0.1138 -0.9935 0.9935 0.1138 29.9899 81.529)" class="st4" cx="60.7" cy="24" rx="0.3" ry="0.3"/>
	<ellipse transform="matrix(0.1138 -0.9935 0.9935 0.1138 32.2447 79.2193)" class="st4" cx="60.5" cy="21.5" rx="0.3" ry="0.3"/>
</g>
<g>
	<path class="st10" d="M72.6,37.7c-0.6-3-3.5-6.8-8.1-5.9c-4.6,0.9-6,5.4-5.4,8.5L72.6,37.7z"/>
	<path class="st10" d="M58.6,35.4c-1,1.9-1.4,4.3-0.9,6.8c0.7,3.9,3.5,6.9,6.8,7.8c1-1.9,1.4-4.3,0.9-6.8
		C64.6,39.3,61.8,36.3,58.6,35.4z"/>
	<path class="st10" d="M74.6,39c-0.5-2.5-1.7-4.5-3.4-6c-2.7,2-4.2,5.8-3.4,9.8c0.5,2.5,1.7,4.5,3.4,6C73.9,46.7,75.3,43,74.6,39z"
		/>
	<path class="st10" d="M69.6,41.6c-0.6-3.2-2.4-5.8-4.7-7.4c-1.6,2.3-2.3,5.4-1.7,8.6c0.6,3.2,2.4,5.8,4.7,7.4
		C69.5,47.8,70.2,44.8,69.6,41.6z"/>
	<path class="st10" d="M67.9,50.2c-1.3-5.1-6.1-8.4-11-7.5C58.4,47.7,63.1,51,67.9,50.2z"/>
	<path class="st10" d="M67.9,50.1c4.8-0.9,7.9-5.7,7.5-11.1C70.5,40.1,67.3,44.9,67.9,50.1z"/>
</g>
<g>
	<polygon class="st11" points="93.2,57.5 98.7,67.2 81.2,80.3 76.6,73.6 	"/>
	<polygon class="st11" points="85.6,59.3 76.6,73.6 93.2,57.5 	"/>
	<ellipse transform="matrix(0.8478 -0.5303 0.5303 0.8478 -27.5852 57.5183)" class="st4" cx="86.4" cy="76.8" rx="2.9" ry="2.9"/>
	<ellipse transform="matrix(0.8478 -0.5303 0.5303 0.8478 -17.712 56.1287)" class="st4" cx="88.9" cy="58.9" rx="1" ry="1"/>
	<ellipse transform="matrix(0.8478 -0.5303 0.5303 0.8478 -19.9961 54.9238)" class="st4" cx="85.7" cy="62.3" rx="0.5" ry="0.5"/>
	<ellipse transform="matrix(0.8478 -0.5303 0.5303 0.8478 -21.94 53.8914)" class="st4" cx="82.9" cy="65.2" rx="0.9" ry="0.9"/>
	<ellipse transform="matrix(0.8478 -0.5303 0.5303 0.8478 -20.3909 57.9998)" class="st4" cx="90.9" cy="64.5" rx="0.8" ry="0.8"/>
	<ellipse transform="matrix(0.8478 -0.5303 0.5303 0.8478 -23.3277 56.8107)" class="st4" cx="87.3" cy="69" rx="1.5" ry="1.5"/>
	<ellipse transform="matrix(0.8478 -0.5303 0.5303 0.8478 -27.0337 54.256)" class="st4" cx="81" cy="74.2" rx="0.5" ry="0.5"/>
</g>
<g>
	<polygon class="st12" points="106.4,107 41.3,107 33.1,116.7 115.3,116.7 	"/>
	<rect x="33.1" y="116.7" class="st12" width="82.3" height="4.8"/>
	<rect x="41.3" y="61.9" class="st13" width="65" height="45.1"/>
	<line class="st14" x1="30.5" y1="116.7" x2="121.1" y2="116.7"/>
</g>
<g>
	<g>
		<path class="st2" d="M97.7,55.6c0.4,2.2,3.2,7.2,3.2,7.2l0,0c0.7,1.4,2.2,2.2,3.9,1.9c1-0.2,1.9-0.7,2.4-1.5
			c0.8,0.6,1.8,0.8,2.8,0.7c1.6-0.3,2.8-1.5,3-3.1l0,0c0,0,1.1-5.6,0.8-7.8l0,0c-0.4-2.7-3-4.5-5.7-4.1c-1.2,0.2-2.2,0.8-3,1.7
			c-1-0.6-2.1-0.8-3.3-0.6C99.1,50.3,97.3,52.9,97.7,55.6L97.7,55.6z M102.9,51.5l0.5-0.1c0.3,0.6,1,0.9,1.7,1c0.1,0,0.2,0,0.4,0
			s0.2-0.1,0.4-0.1c0.6-0.2,1.1-0.8,1.3-1.4l0.5-0.1c-0.1,1.1-1,1.9-2.1,2.1C104.4,53.1,103.4,52.5,102.9,51.5z"/>
	</g>
	<path class="st2" d="M104.6,49.6l-0.6-3.5l0.7-0.1l0.4,2.5l0.9-1.2c-0.5-1.3-0.3-2.7,0.5-3.8c0.6-0.9,1.6-1.5,2.7-1.6
		c0.3-0.1,0.6-0.1,1,0l0.2,0l0.1,0.2c0.6,1.3,0.4,2.8-0.4,4c-0.6,0.9-1.6,1.5-2.7,1.6c-0.2,0-0.5,0.1-0.7,0l-1.3,1.9L104.6,49.6z"/>
</g>
<path class="st1" d="M58,52.8l-2.1,1.8c-0.4-1.5-1.9-2.3-3.4-2c-2.3,0.5-4.6-0.5-5.9-2.5c-1.2-2-1.1-4.5,0.3-6.3
	c0.8-1,0.8-2.3,0.1-3.3c-0.1-0.2-0.3-0.4-0.5-0.6l2.5-1.1l-3.1-2.3l-0.3,2.8c-1.2-0.4-2.6-0.1-3.4,1c-2.9,3.8-3.1,9-0.5,13
	c2.6,4,7.4,6,12,5c1.3-0.3,2.2-1.4,2.3-2.6l2.7,0.9L58,52.8z"/>
</svg>
