<?xml version="1.0" encoding="utf-8"?>
<!-- Generator: Adobe Illustrator 20.1.0, SVG Export Plug-In . SVG Version: 6.00 Build 0)  -->
<svg version="1.1" id="Layer_1" xmlns="http://www.w3.org/2000/svg" xmlns:xlink="http://www.w3.org/1999/xlink" x="0px" y="0px"
	 viewBox="0 0 151.6 137.6" style="enable-background:new 0 0 151.6 137.6;" xml:space="preserve">
<style type="text/css">
	.st0{fill:#97B056;}
	.st1{fill:#E3A425;}
	.st2{fill:#DD7626;}
	.st3{fill:none;}
	.st4{fill:#FFFFFF;}
	.st5{fill:none;stroke:#FFFFFF;stroke-width:0.7669;stroke-miterlimit:10;}
	.st6{fill:none;stroke:#97B056;stroke-width:1.0011;stroke-miterlimit:10;}
	.st7{fill:none;stroke:#FFFFFF;stroke-width:0.5778;stroke-miterlimit:10;}
	.st8{fill:none;stroke:#97B056;stroke-width:0.7543;stroke-miterlimit:10;}
	.st9{clip-path:url(#SVGID_2_);}
	.st10{fill:#97B056;stroke:#FFFFFF;stroke-width:0.4237;stroke-miterlimit:10;}
	.st11{fill:#E3A425;stroke:#FFFFFF;stroke-width:0.4771;stroke-miterlimit:10;}
	.st12{fill:#B3B4B4;stroke:#B3B4B4;stroke-width:2.4111;stroke-linejoin:round;stroke-miterlimit:10;}
	.st13{fill:none;stroke:#B3B4B4;stroke-width:2.4111;stroke-miterlimit:10;}
	.st14{fill:none;stroke:#FFFFFF;stroke-width:0.868;stroke-miterlimit:10;}
	.st15{fill:none;stroke:#FFFFFF;stroke-width:0.5482;stroke-miterlimit:10;}
	.st16{fill:none;stroke:#97B056;stroke-width:0.5482;stroke-miterlimit:10;}
	.st17{fill:none;stroke:#FFFFFF;stroke-width:0.684;stroke-miterlimit:10;}
	.st18{fill:none;stroke:#97B056;stroke-width:0.684;stroke-miterlimit:10;}
	.st19{fill:none;stroke:#E3A425;stroke-width:2.5878;stroke-linecap:round;stroke-linejoin:round;stroke-miterlimit:10;}
	.st20{fill:#8E799B;stroke:#E3A425;stroke-width:2.5878;stroke-linecap:round;stroke-linejoin:round;stroke-miterlimit:10;}
	.st21{fill:none;stroke:#FFFFFF;stroke-width:2.3598;stroke-linecap:round;stroke-linejoin:round;stroke-miterlimit:10;}
	.st22{fill:#E3A425;stroke:#E3A425;stroke-width:2.5878;stroke-linecap:round;stroke-miterlimit:10;}
</style>
<g>
	<polygon class="st2" points="108.1,39.9 108.1,112.8 112.7,117.4 112.7,35.3 	"/>
	<polygon class="st2" points="43.6,39.9 38.9,35.3 38.9,117.4 43.6,112.8 	"/>
	<path class="st2" d="M107,38.8l4.6-4.6H90.2l-7.6-10.1c-1.7-2.2-4.2-3.5-6.9-3.5c-2.8,0-5.3,1.3-6.9,3.5l-7.6,10.1H40l4.6,4.6H107z
		 M69.8,24.9c1.4-1.9,3.6-2.9,5.9-2.9s4.5,1.1,5.9,2.9l7,9.3H62.8L69.8,24.9z"/>
	<polygon class="st2" points="44.6,113.9 40,118.5 111.6,118.5 107,113.9 	"/>
	<circle class="st2" cx="75.7" cy="25.6" r="1.9"/>
	<g>
		<path class="st0" d="M48.2,86.7v21.4h0.1h1.1H67V86.9c-2.1,2.9-5.5,4.8-9.3,4.8C53.7,91.7,50.3,89.7,48.2,86.7z"/>
	</g>
	<path class="st1" d="M63.5,70.7c0.4,0.1,0.9,0.1,1.4,0.1l0,0c0,0,0-0.1,0-0.1c0-3.7-2.7-6.7-6.2-7.2c0,1-0.2,1.9-0.4,2.8
		C59.4,68.6,61.3,70.2,63.5,70.7z"/>
	<path class="st1" d="M50.4,70.7c0,0.4,0,0.8,0.1,1.3c0,0,0,0,0,0c1.4,0,2.6-0.5,3.7-1.3c2.1-1.5,3.6-4.2,3.6-7.2
		c-0.1,0-0.1,0-0.2,0C53.6,63.4,50.4,66.7,50.4,70.7z"/>
	<path class="st1" d="M55.6,70.7c-1.3,1.2-3,2-4.9,2.1c0,0,0,0-0.1,0c0.1,0.4,0.2,0.8,0.3,1.1l1.2,3.2c0.6,1.4,1.6,2.6,3,3.2
		c0.8,0.4,1.6,0.6,2.5,0.6s1.7-0.2,2.5-0.6c1.3-0.6,2.4-1.8,3-3.2l1.2-3.2c0.3-0.7,0.5-1.5,0.5-2.3c0,0,0,0,0,0
		c-1.3,0-2.6-0.4-3.7-1c-1.3-0.7-2.4-1.8-3.2-3.3C57.3,68.7,56.6,69.8,55.6,70.7z"/>
	<g>
		<polygon class="st0" points="50.6,84.2 52.9,85.7 55.1,87.2 56.5,85.7 57.7,84.4 52.9,82.4 		"/>
	</g>
	<g>
		<polygon class="st0" points="62.4,85.7 64.7,84.2 62.4,82.4 57.7,84.4 58.9,85.7 60.2,87.2 		"/>
	</g>
	<circle class="st1" cx="57.7" cy="87.2" r="1.2"/>
	<path class="st1" d="M92.1,61.2c-4.4,0-7.9,3.5-7.9,7.9v1.3c-0.7,0.1-1.2,0.7-1.2,1.4c0,0.7,0.6,1.3,1.3,1.4l1.9,4.9
		c0.9,2.5,3.3,4.1,5.9,4.1c2.6,0,5-1.6,5.9-4.1l1.9-4.9c0.7-0.1,1.3-0.7,1.3-1.4c0-0.7-0.5-1.3-1.2-1.4v-1.3
		C100.1,64.8,96.5,61.2,92.1,61.2z M88.6,68.6c0.6,0,1.2,0.2,1.6,0.5c0.4,0.3,0.8,0.8,1,1.3c0.3-0.2,0.6-0.3,0.9-0.3
		s0.7,0.1,0.9,0.3c0.2-0.5,0.5-1,1-1.3c0.5-0.3,1-0.5,1.6-0.5c0.6,0,1.2,0.2,1.6,0.5c0.7,0.5,1.1,1.3,1.1,2.2c0,1.5-1.2,2.8-2.8,2.8
		c-1.4,0-2.5-1-2.7-2.4h0c0-0.4-0.3-0.8-0.8-0.8s-0.8,0.3-0.8,0.8h0c-0.2,1.3-1.3,2.4-2.7,2.4c-1.5,0-2.8-1.2-2.8-2.8
		c0-0.9,0.4-1.7,1.1-2.2C87.5,68.8,88,68.6,88.6,68.6z"/>
	<g>
		<path class="st0" d="M80.9,108.1h4.2h0.9h12.5h0.9h3h1.1h0.1V84.2l-5.1-1.1V94H85.9V83.1l-5.1,1.1V108.1z M100.9,95.9
			c0.5,0,1,0.4,1,1s-0.4,1-1,1s-1-0.4-1-1S100.4,95.9,100.9,95.9z M83.4,95.9c0.5,0,1,0.4,1,1s-0.4,1-1,1c-0.5,0-1-0.4-1-1
			S82.8,95.9,83.4,95.9z"/>
	</g>
	<path class="st0" d="M75.2,93.4V86h0.6c2.4,0,4.4-2,4.4-4.4V67.9h-1.3v13.7c0,1.7-1.4,3-3,3h-0.6v-17h-1.3v17h-0.6
		c-1.7,0-3-1.4-3-3V67.9h-1.3v12.4v1.4c0,0.2,0,0.3,0,0.4c0.2,2.2,2.1,3.9,4.3,3.9h0.6v7.4"/>
	<path class="st1" d="M73.9,102h2c0.6,0,1.1-0.5,1.1-1.1v-4.4c0-0.6-0.5-1.1-1.1-1.1h-2.4"/>
	<polyline class="st0" points="73.9,103.8 73.9,108.1 75.2,108.1 75.2,103.8 	"/>
	<path class="st1" d="M73.9,95.3h-0.4h-0.8c-1.6,0-2.9,1.3-2.9,2.9V99c0,1.6,1.3,2.9,2.9,2.9h0.8h0.4"/>
	<circle class="st1" cx="95.7" cy="71.4" r="1.9"/>
	<circle class="st1" cx="88.6" cy="71.4" r="1.9"/>
</g>
</svg>
