<?xml version="1.0" encoding="utf-8"?>
<!-- Generator: Adobe Illustrator 20.1.0, SVG Export Plug-In . SVG Version: 6.00 Build 0)  -->
<svg version="1.1" id="Layer_1" xmlns="http://www.w3.org/2000/svg" xmlns:xlink="http://www.w3.org/1999/xlink" x="0px" y="0px"
	 viewBox="0 0 151.6 137.6" style="enable-background:new 0 0 151.6 137.6;" xml:space="preserve">
<style type="text/css">
	.st0{fill:#97B056;}
	.st1{fill:#E3A425;}
	.st2{fill:#DD7626;}
	.st3{fill:none;}
	.st4{fill:#FFFFFF;}
	.st5{fill:none;stroke:#FFFFFF;stroke-width:0.7669;stroke-miterlimit:10;}
	.st6{fill:none;stroke:#97B056;stroke-width:1.0011;stroke-miterlimit:10;}
	.st7{fill:none;stroke:#FFFFFF;stroke-width:0.5778;stroke-miterlimit:10;}
	.st8{fill:none;stroke:#97B056;stroke-width:0.7543;stroke-miterlimit:10;}
	.st9{clip-path:url(#SVGID_2_);}
	.st10{fill:#97B056;stroke:#FFFFFF;stroke-width:0.4237;stroke-miterlimit:10;}
	.st11{fill:#E3A425;stroke:#FFFFFF;stroke-width:0.4771;stroke-miterlimit:10;}
	.st12{fill:#B3B4B4;stroke:#B3B4B4;stroke-width:2.4111;stroke-linejoin:round;stroke-miterlimit:10;}
	.st13{fill:none;stroke:#B3B4B4;stroke-width:2.4111;stroke-miterlimit:10;}
	.st14{fill:none;stroke:#FFFFFF;stroke-width:0.868;stroke-miterlimit:10;}
	.st15{fill:none;stroke:#FFFFFF;stroke-width:0.5482;stroke-miterlimit:10;}
	.st16{fill:none;stroke:#97B056;stroke-width:0.5482;stroke-miterlimit:10;}
	.st17{fill:none;stroke:#FFFFFF;stroke-width:0.684;stroke-miterlimit:10;}
	.st18{fill:none;stroke:#97B056;stroke-width:0.684;stroke-miterlimit:10;}
	.st19{fill:none;stroke:#E3A425;stroke-width:2.5878;stroke-linecap:round;stroke-linejoin:round;stroke-miterlimit:10;}
	.st20{fill:#8E799B;stroke:#E3A425;stroke-width:2.5878;stroke-linecap:round;stroke-linejoin:round;stroke-miterlimit:10;}
	.st21{fill:none;stroke:#FFFFFF;stroke-width:2.3598;stroke-linecap:round;stroke-linejoin:round;stroke-miterlimit:10;}
	.st22{fill:#E3A425;stroke:#E3A425;stroke-width:2.5878;stroke-linecap:round;stroke-miterlimit:10;}
</style>
<g>
	<g>
		<path class="st0" d="M98.7,83.1c-7.2-1-13.8-4-18.5-8.5c-5.5,3.6-12.6,5.9-20.4,5.9c-3.4,0-6.7-0.4-9.8-1.2
			c-0.3,1.6-0.5,3.2-0.5,4.8c0,13.6,11,24.6,24.6,24.6c13.6,0,24.6-11,24.6-24.6C98.7,83.7,98.7,83.4,98.7,83.1z M64,88
			c-0.9,0-1.7-0.8-1.7-1.7c0-0.9,0.8-1.7,1.7-1.7c0.9,0,1.7,0.8,1.7,1.7C65.7,87.3,64.9,88,64,88z M74.1,99.7
			c-2.3,0-4.3-1.6-4.8-3.7h9.6C78.3,98.1,76.4,99.7,74.1,99.7z M84.1,88c-0.9,0-1.7-0.8-1.7-1.7c0-0.9,0.8-1.7,1.7-1.7
			c0.9,0,1.7,0.8,1.7,1.7C85.8,87.3,85.1,88,84.1,88z"/>
		<path class="st0" d="M81.8,73.4c4.4,4,10.2,6.6,16.7,7.6c-0.8-6.6-4.3-12.5-9.3-16.4C87.6,68,85,71,81.8,73.4z"/>
		<path class="st0" d="M87.6,63.5c-3.9-2.5-8.5-4-13.5-4c-11.3,0-20.7,7.6-23.7,17.9c2.9,0.8,6.1,1.2,9.4,1.2
			C72.5,78.5,83.5,72.2,87.6,63.5z"/>
	</g>
	<g>
		<path class="st1" d="M126.6,48.6c-5.2-0.7-9.9-2.9-13.4-6.1c-4,2.6-9.1,4.2-14.7,4.2c-2.5,0-4.9-0.3-7.1-0.9
			C91.2,47,91,48.1,91,49.3c0,9.8,8,17.8,17.8,17.8c9.8,0,17.8-8,17.8-17.8C126.6,49.1,126.6,48.8,126.6,48.6z M101.6,52.2
			c-0.7,0-1.2-0.6-1.2-1.2c0-0.7,0.6-1.2,1.2-1.2c0.7,0,1.2,0.6,1.2,1.2C102.8,51.6,102.2,52.2,101.6,52.2z M108.8,60.6
			c-1.7,0-3.1-1.1-3.5-2.7h7C111.9,59.4,110.5,60.6,108.8,60.6z M116.1,52.2c-0.7,0-1.2-0.6-1.2-1.2c0-0.7,0.6-1.2,1.2-1.2
			c0.7,0,1.2,0.6,1.2,1.2C117.3,51.6,116.8,52.2,116.1,52.2z"/>
		<path class="st1" d="M114.4,41.6c3.1,2.9,7.4,4.8,12,5.5c-0.6-4.8-3.1-9-6.7-11.8C118.6,37.7,116.7,39.9,114.4,41.6z"/>
		<path class="st1" d="M118.6,34.4c-2.8-1.8-6.1-2.9-9.7-2.9c-8.1,0-15,5.5-17.1,12.9c2.1,0.5,4.4,0.8,6.8,0.8
			C107.7,45.3,115.6,40.7,118.6,34.4z"/>
	</g>
	<g>
		<path class="st2" d="M52.4,50.8c-3.5-0.5-6.6-1.9-8.8-4c-2.6,1.7-6,2.8-9.7,2.8c-1.6,0-3.2-0.2-4.7-0.6c-0.1,0.7-0.2,1.5-0.2,2.3
			c0,6.5,5.3,11.8,11.8,11.8c6.5,0,11.8-5.3,11.8-11.8C52.4,51.1,52.4,50.9,52.4,50.8z M35.8,53.1c-0.4,0-0.8-0.4-0.8-0.8
			s0.4-0.8,0.8-0.8c0.4,0,0.8,0.4,0.8,0.8S36.3,53.1,35.8,53.1z M40.6,58.7c-1.1,0-2-0.8-2.3-1.8h4.6C42.6,57.9,41.7,58.7,40.6,58.7
			z M45.4,53.1c-0.4,0-0.8-0.4-0.8-0.8s0.4-0.8,0.8-0.8s0.8,0.4,0.8,0.8S45.9,53.1,45.4,53.1z"/>
		<path class="st2" d="M44.3,46.1c2.1,1.9,4.9,3.1,8,3.6c-0.4-3.2-2-5.9-4.4-7.8C47.1,43.5,45.8,45,44.3,46.1z"/>
		<path class="st2" d="M47.1,41.4c-1.9-1.2-4.1-1.9-6.4-1.9c-5.4,0-9.9,3.6-11.3,8.5c1.4,0.4,2.9,0.6,4.5,0.6
			C39.9,48.5,45.1,45.5,47.1,41.4z"/>
	</g>
</g>
</svg>
