<?xml version="1.0" encoding="utf-8"?>
<!-- Generator: Adobe Illustrator 20.1.0, SVG Export Plug-In . SVG Version: 6.00 Build 0)  -->
<svg version="1.1" id="Layer_1" xmlns="http://www.w3.org/2000/svg" xmlns:xlink="http://www.w3.org/1999/xlink" x="0px" y="0px"
	 viewBox="0 0 100.1 91.3" style="enable-background:new 0 0 100.1 91.3;" xml:space="preserve">
<style type="text/css">
	.st0{fill:#DE7509;}
</style>
<g>
	<path class="st0" d="M53,12.5c0.1,0,0.1,0,0.2,0c0,0,0.1,0,0.1,0c0.4,0,0.7,0,1,0c0.4,0,0.7,0,1,0V0h-4.5v12.6c0.3,0,0.7,0,1-0.1
		C52.3,12.5,52.6,12.5,53,12.5z"/>
	<path class="st0" d="M28,23.4c0.2-0.3,0.5-0.5,0.7-0.8c0.1-0.1,0.1-0.1,0.2-0.2c0.2-0.2,0.5-0.5,0.8-0.7c0.3-0.2,0.5-0.5,0.8-0.7
		l-8.9-8.9l-3.2,3.2l8.9,8.9C27.5,24,27.7,23.7,28,23.4z"/>
	<path class="st0" d="M77.4,22.4c0.1,0.1,0.1,0.1,0.2,0.2c0.2,0.2,0.5,0.5,0.7,0.8c0.2,0.3,0.5,0.5,0.7,0.8l8.8-8.8l-3.2-3.2
		L75.9,21c0.3,0.2,0.5,0.5,0.8,0.7C76.9,21.9,77.2,22.2,77.4,22.4z"/>
	<path class="st0" d="M87.7,44.7c0,0.3,0,0.7,0.1,1c0,0.3,0,0.7,0,1c0,0.1,0,0.2,0,0.3v0c0,0.4,0,0.7,0,1c0,0.4,0,0.7,0,1h12.4v-4.5
		H87.7z"/>
	<path class="st0" d="M18.7,48.2c0-0.3,0-0.7,0-1c0,0,0,0,0-0.1c0-0.1,0-0.2,0-0.2c0-0.4,0-0.7,0-1c0-0.4,0-0.7,0.1-1H6.2v4.5h12.5
		C18.7,48.9,18.7,48.5,18.7,48.2z"/>
	<path class="st0" d="M77.4,57c-0.9-0.9-2.3-0.9-3.2,0L60.7,70.6H37.7v-5h19.2c1,0,1.8-0.8,1.8-1.8v-3.6c0-1-0.8-1.8-1.8-1.8H37.7
		h-4.3H21.9l-1.1,0.6L0,70l11.8,21.3l21.9-11.7l-0.1-0.2H41h23.3l16.2-16.2c0.9-0.9,0.9-2.3,0-3.2L77.4,57z"/>
	<path class="st0" d="M47.5,50.7h10.7h19.5c0-8.4-6.8-15.1-15.1-15.1c-3.7,0-7.1,1.4-9.8,3.6c-2.6-2.2-6-3.6-9.8-3.6
		c-8.4,0-15.1,6.8-15.1,15.1H47.5z M47.2,41.1c0.4,1,1.1,1.9,2,2.6c0.7,0.5,1.6,0.9,2.5,1.1c0.4,0.1,0.8,0.1,1.1,0.1
		c0.4,0,0.8,0,1.1-0.1c0.9-0.2,1.8-0.6,2.5-1.1c0.9-0.7,1.6-1.6,2-2.6h1.6c-0.5,1.7-1.6,3.1-3,4c-1.2,0.8-2.7,1.3-4.3,1.3
		c-1.6,0-3.1-0.5-4.3-1.3c-1.4-1-2.5-2.4-3-4H47.2z"/>
	<path class="st0" d="M46.7,32.8c0.5,0,1.1-0.1,1.6-0.2l3.6,3.6h1.7v-8h-1.7v5.6l-2.4-2.4c0.5-3-0.4-5.9-2.5-8.1
		c-1.7-1.7-4-2.7-6.5-2.7c-0.7,0-1.4,0.1-2.1,0.3L37.9,21l-0.1,0.5c-0.7,3.1,0.2,6.3,2.4,8.6C41.9,31.8,44.2,32.8,46.7,32.8z"/>
</g>
</svg>
