<?xml version="1.0" encoding="utf-8"?>
<!-- Generator: Adobe Illustrator 21.0.0, SVG Export Plug-In . SVG Version: 6.00 Build 0)  -->
<svg version="1.1" id="Layer_1" xmlns="http://www.w3.org/2000/svg" xmlns:xlink="http://www.w3.org/1999/xlink" x="0px" y="0px"
	 viewBox="0 0 612 269.8" style="enable-background:new 0 0 612 269.8;" xml:space="preserve">
<g>
	<g>
		<g>
			<g>
				<path d="M306,230.4c-0.6,0-1.2,0-1.8-0.1L66.5,189.7c-5-0.9-8.6-5.2-8.6-10.2V90.3c0-5.1,3.6-9.3,8.6-10.2l237.7-40.5
					c0.9-0.2,2.4-0.2,3.6,0l237.6,40.5c5,0.8,8.6,5.1,8.6,10.2v89.2c0,5-3.6,9.3-8.6,10.2l-237.8,40.5
					C307.2,230.3,306.6,230.4,306,230.4z M306,44.7c-0.3,0-0.6,0-0.8,0.1L67.4,85.3c-2.5,0.4-4.2,2.5-4.2,5v89.2
					c0,2.5,1.8,4.6,4.2,5L305.1,225c0.6,0.1,1.2,0.1,1.7,0l237.8-40.5c2.4-0.4,4.2-2.5,4.2-5V90.3c0-2.5-1.8-4.6-4.2-5L306.9,44.7
					C306.6,44.7,306.3,44.7,306,44.7z"/>
			</g>
		</g>
	</g>
	<path d="M150.1,157.7c-12.6,0-22.8-10.2-22.8-22.8c0-12.6,10.2-22.8,22.8-22.8c12.6,0,22.8,10.2,22.8,22.8
		C172.9,147.4,162.7,157.7,150.1,157.7z M150.1,117.1c-9.8,0-17.7,8-17.7,17.7c0,9.8,8,17.7,17.7,17.7c9.8,0,17.7-8,17.7-17.7
		C167.8,125.1,159.9,117.1,150.1,117.1z"/>
	<path d="M114.5,117.6c-0.3,0.4-0.7,0.6-1.2,0.6H96.5v17.1h4.1v0h10.5c0.8,0,1.5,0.7,1.5,1.5v2c0,0.8-0.7,1.5-1.5,1.5H96.5v14.5
		c0,0.7-0.4,1.2-1,1.5l-2,0.7c-0.2,0.1-0.3,0.1-0.5,0.1c-0.3,0-0.6-0.1-0.9-0.3c-0.1,0-0.1-0.1-0.2-0.1c-0.2-0.2-0.4-0.6-0.4-1.7
		v-14.7h-1.6c-0.8,0-1.5-0.7-1.5-1.5v-2c0-0.9,0.7-1.5,1.5-1.5h1.6v-16c0-5.4,0.7-6.1,1.5-6.1h19.9c0.7,0,1.3,0.5,1.5,1.2l0.4,2
		C115,116.7,114.8,117.2,114.5,117.6z"/>
	<path d="M223.9,134.9c0,9.8-7.9,17.7-17.7,17.7c-9.8,0-17.7-8-17.7-17.7c0-9.8,8-17.7,17.7-17.7C216,117.1,223.9,125.1,223.9,134.9
		z M229,134.9c0-12.6-10.2-22.8-22.8-22.8c-12.6,0-22.8,10.2-22.8,22.8c0,12.6,10.2,22.8,22.8,22.8C218.7,157.7,229,147.4,229,134.9
		z"/>
	<path d="M264.8,134.9c0,9.9-7.1,16.6-17.7,16.7v-33.4C257.7,118.3,264.8,125,264.8,134.9z M269.9,134.9c0-12.6-9.3-21.8-22.1-21.8
		h-4.2c-0.8,0-1.5,0.7-1.5,1.5v40.5c0,0.9,0.7,1.5,1.5,1.5h2.1C262.4,156.6,269.9,145.7,269.9,134.9z"/>
	<path d="M333.8,115.6l-16.7,41.1c-0.2,0.6-0.8,1-1.4,1h0c-0.6,0-1.2-0.4-1.4-0.9l-6.7-15.6l-6.6,15.6c-0.2,0.6-0.8,0.9-1.4,0.9
		c-0.7,0-1.2-0.4-1.4-0.9l-17.9-41.1c-0.2-0.4-0.2-0.8,0-1.2c0.2-0.4,0.5-0.7,0.9-0.8l2-0.7c0.8-0.3,1.6,0.1,1.9,0.8l14.5,34.1
		l5.4-12.9l-8.3-19.3c-0.2-0.4-0.2-0.8,0-1.2c0.2-0.4,0.5-0.7,0.9-0.8l2-0.7c0.8-0.3,1.6,0.1,1.9,0.9l6.2,14.7l6.1-14.7
		c0.3-0.8,1.2-1.2,2-0.9l1.8,0.7c0.4,0.1,0.7,0.4,0.9,0.8c0.2,0.4,0.2,0.8,0,1.2l-8.1,19.2l5.4,12.9l13.3-33.9
		c0.3-0.8,1.1-1.2,1.9-0.9l2,0.7c0.4,0.1,0.7,0.4,0.9,0.8C334,114.7,334,115.2,333.8,115.6z"/>
	<path d="M387.4,134.9c0,9.8-8,17.7-17.7,17.7c-9.8,0-17.7-8-17.7-17.7c0-9.8,8-17.7,17.7-17.7C379.5,117.1,387.4,125.1,387.4,134.9
		z M392.5,134.9c0-12.6-10.2-22.8-22.8-22.8c-12.6,0-22.8,10.2-22.8,22.8c0,12.6,10.2,22.8,22.8,22.8
		C382.2,157.7,392.5,147.4,392.5,134.9z"/>
	<path d="M474.2,155.2l-1.5,1.3c-0.3,0.3-0.7,0.5-1.1,0.4c-0.4,0-0.8-0.2-1.1-0.5l-16.2-17.9v16.2c0,0.7-0.4,1.2-1,1.5l-2,0.7
		c-0.2,0-0.3,0.1-0.5,0.1c-0.3,0-0.6-0.1-0.9-0.3c-0.4-0.3-0.6-0.7-0.6-1.3V115c0-0.7,0.4-1.2,1-1.4l2-0.7c0.5-0.2,1-0.1,1.4,0.2
		c0.4,0.3,0.6,0.8,0.6,1.2v16.2l15.6-16.9c0.5-0.6,1.4-0.7,2.1-0.2l1.5,1.1c0.3,0.3,0.5,0.7,0.6,1.1c0,0.4-0.1,0.9-0.4,1.2
		l-16.3,17.7l17,18.6C474.9,153.7,474.9,154.6,474.2,155.2z"/>
	<path d="M503,157.7c-6.1,0-9.6-4.2-11.3-6.3c-0.5-0.6-0.5-1.5,0.1-2.1l1.5-1.5c0.3-0.3,0.7-0.5,1.2-0.4c0.4,0,0.8,0.2,1.1,0.5
		c1.4,1.7,3.9,4.7,7.5,4.7c5.7,0,7.8-5,7.8-8.1c0-3.6-1.8-5.7-6.3-7l-2.5-0.7c-7.9-2.3-9.6-7.7-9.6-11.9c0-7.3,5.2-12.8,12.2-12.8
		c5.7,0,8.8,3,10.3,4.4c0.3,0.3,0.5,0.7,0.5,1.1c0,0.4-0.2,0.8-0.5,1.1l-1.5,1.5c-0.6,0.6-1.5,0.6-2.1,0c-3.1-2.8-4.7-3.1-6.7-3.1
		c-5.6,0-7.1,4.9-7.1,7.7c0,3.4,1.8,5.6,5.7,6.8l3.4,1.1c2.8,0.9,9.2,2.9,9.2,11.7C515.8,150.9,511.3,157.7,503,157.7z"/>
	<path d="M430.8,155.6l-1.6,1.1c-0.3,0.2-0.6,0.3-0.9,0.3c-0.4,0-0.8-0.2-1.1-0.5L413.5,141v13.8c0,0.7-0.4,1.2-1,1.5l-2,0.7
		c-0.5,0.2-1,0.1-1.4-0.2c-0.4-0.3-0.6-0.8-0.6-1.3v-40.8c0-0.8,0.7-1.5,1.5-1.5h2c4.4,0,17.7,0,17.7,13c0,6.6-4.3,11.5-11.2,13.1
		l12.7,14.1c0.3,0.3,0.4,0.8,0.4,1.2C431.4,154.9,431.2,155.3,430.8,155.6z M424.6,125.8c0-6.7-6.8-7.7-10.9-7.7h-0.1v16.8
		C419.5,134.5,424.6,132.9,424.6,125.8z"/>
</g>
</svg>
