<?xml version="1.0" encoding="utf-8"?>
<!-- Generator: Adobe Illustrator 20.1.0, SVG Export Plug-In . SVG Version: 6.00 Build 0)  -->
<svg version="1.1" id="Layer_1" xmlns="http://www.w3.org/2000/svg" xmlns:xlink="http://www.w3.org/1999/xlink" x="0px" y="0px"
	 viewBox="0 0 612 358" style="enable-background:new 0 0 612 358;" xml:space="preserve">
<style type="text/css">
	.st0{fill:none;stroke:#F04E30;stroke-width:14;stroke-miterlimit:10;}
</style>
<g>
	<g>
		<g>
			<path class="st0" d="M307.6,302.8c-0.8,0-1.5-0.1-2.3-0.2l-0.3-0.1l-205.4-52c-6.4-1.2-11-6.7-11-13.2V122.7
				c0-6.5,4.6-12,11-13.2l205.5-52.1l0.1,0c1.4-0.3,3.2-0.3,4.7,0l0.2,0l205.3,52c6.4,1.2,11,6.7,11,13.2v114.7
				c0,6.5-4.6,12-11,13.2L310,302.6l-0.1,0C309.1,302.7,308.4,302.8,307.6,302.8z"/>
		</g>
	</g>
</g>
</svg>
