<?xml version="1.0" encoding="utf-8"?>
<!-- Generator: Adobe Illustrator 20.1.0, SVG Export Plug-In . SVG Version: 6.00 Build 0)  -->
<svg version="1.1" id="Layer_1" xmlns="http://www.w3.org/2000/svg" xmlns:xlink="http://www.w3.org/1999/xlink" x="0px" y="0px"
	 viewBox="0 0 89.4 79.6" style="enable-background:new 0 0 89.4 79.6;" xml:space="preserve">
<style type="text/css">
	.st0{fill:#53C1DE;}
</style>
<g>
	<path class="st0" d="M73.5,25.8L73.5,25.8c-1-0.3-1.9-0.6-2.9-0.9c0.2-0.7,0.3-1.3,0.4-2C73.3,12.3,71.9,3.8,67,1
		c-4.7-2.7-12.3,0.1-20,6.8c-0.8,0.7-1.5,1.3-2.2,2c-0.5-0.5-1-0.9-1.5-1.4c-8.1-7.2-16.2-10.2-21-7.4c-4.7,2.7-6,10.7-4.1,20.7
		c0.2,1,0.4,2,0.7,3c-1.1,0.3-2.3,0.7-3.3,1C6,29.2,0,34.3,0,39.7c0,5.5,6.5,11.1,16.4,14.5c0.8,0.3,1.6,0.5,2.4,0.8
		c-0.3,1.1-0.5,2.1-0.7,3.2c-1.9,9.9-0.4,17.7,4.2,20.4c4.8,2.8,12.9-0.1,20.7-6.9c0.6-0.5,1.2-1.1,1.9-1.7c0.8,0.8,1.6,1.5,2.4,2.2
		c7.6,6.5,15.1,9.2,19.8,6.5c4.8-2.8,6.4-11.2,4.3-21.4c-0.2-0.8-0.3-1.6-0.5-2.4c0.6-0.2,1.1-0.3,1.7-0.5
		c10.3-3.4,16.9-8.9,16.9-14.5C89.4,34.3,83.2,29.1,73.5,25.8z M49.5,10.7c6.6-5.7,12.8-8,15.6-6.4l0,0c3,1.7,4.2,8.7,2.3,17.8
		c-0.1,0.6-0.3,1.2-0.4,1.8c-3.7-0.9-7.7-1.5-12-1.9c-2.5-3.5-5-6.7-7.6-9.4C48.1,12,48.8,11.3,49.5,10.7z M26.4,44.3
		c0.8,1.6,1.7,3.1,2.5,4.6c0.9,1.6,1.8,3.1,2.8,4.6c-2.9-0.3-5.7-0.8-8.2-1.3C24.3,49.6,25.3,47,26.4,44.3z M26.4,35.3
		c-1.1-2.6-2.1-5.2-2.8-7.7c2.6-0.6,5.3-1,8.1-1.4c-0.9,1.5-1.9,3-2.7,4.5C28.1,32.2,27.2,33.7,26.4,35.3z M28.4,39.8
		c1.2-2.5,2.4-4.9,3.8-7.2v0c1.4-2.4,2.8-4.7,4.3-6.9c2.7-0.2,5.4-0.3,8.1-0.3c2.8,0,5.5,0.1,8.2,0.3c1.5,2.2,3,4.5,4.3,6.9
		c1.4,2.3,2.6,4.7,3.9,7.2c-1.2,2.5-2.5,4.9-3.8,7.2l0,0c-1.4,2.4-2.8,4.7-4.3,6.9c-2.7,0.2-5.4,0.3-8.2,0.3c-2.8,0-5.5-0.1-8.1-0.3
		c-1.5-2.3-3-4.6-4.4-6.9C30.9,44.7,29.6,42.3,28.4,39.8z M60.5,48.9c0.9-1.6,1.8-3.1,2.6-4.7h0c1.2,2.7,2.2,5.4,3,7.9
		c-2.6,0.6-5.4,1.1-8.3,1.4C58.7,51.9,59.6,50.4,60.5,48.9z M63.1,35.3c-0.8-1.6-1.7-3.1-2.6-4.7v0c-0.9-1.5-1.8-3-2.7-4.5
		c2.9,0.4,5.6,0.8,8.2,1.4C65.2,30.1,64.2,32.7,63.1,35.3z M44.8,15.3c1.8,1.9,3.5,4,5.3,6.4c-3.5-0.2-7-0.2-10.6,0
		C41.2,19.4,43,17.3,44.8,15.3z M24.2,4.4c3-1.7,9.6,0.7,16.6,6.9c0.4,0.4,0.9,0.8,1.3,1.2c-2.6,2.8-5.2,6-7.6,9.4
		c-4.2,0.4-8.2,1-11.9,1.9c-0.2-0.9-0.4-1.8-0.6-2.8v0C20.2,12.5,21.3,6.1,24.2,4.4z M19.8,51.3c-0.7-0.2-1.5-0.4-2.2-0.7
		c-4.4-1.5-8-3.4-10.4-5.5c-2.2-1.9-3.3-3.8-3.3-5.3c0-3.3,4.9-7.4,13-10.2c1-0.4,2-0.7,3.1-1c1.1,3.6,2.6,7.4,4.4,11.3
		C22.4,43.7,20.9,47.6,19.8,51.3z M40.5,68.7c-3.5,3-6.9,5.2-10,6.3l0,0c-2.8,1-4.9,1-6.3,0.2c-2.8-1.6-4-7.9-2.4-16.3
		c0.2-1,0.4-2,0.7-3c3.7,0.8,7.7,1.4,12.1,1.7c2.5,3.5,5.1,6.7,7.7,9.5C41.7,67.6,41.1,68.2,40.5,68.7z M44.9,64.4
		c-1.8-2-3.6-4.1-5.4-6.4c1.7,0.1,3.5,0.1,5.2,0.1c1.8,0,3.6,0,5.4-0.1C48.4,60.3,46.6,62.4,44.9,64.4z M68.1,69.7
		c-0.5,2.9-1.6,4.8-2.9,5.6c-2.8,1.6-8.8-0.5-15.3-6.1c-0.7-0.6-1.5-1.3-2.2-2.1c2.5-2.8,5-6,7.5-9.5c4.3-0.4,8.4-1,12.1-1.9
		c0.2,0.7,0.3,1.5,0.5,2.2v0C68.5,62.4,68.7,66.5,68.1,69.7z M71.3,50.6L71.3,50.6c-0.5,0.2-1,0.3-1.5,0.5
		c-1.1-3.6-2.7-7.4-4.5-11.3c1.8-3.8,3.3-7.6,4.4-11.2c0.9,0.3,1.8,0.5,2.7,0.8c8.3,2.8,13.3,7.1,13.3,10.3
		C85.6,43.2,80.2,47.7,71.3,50.6z"/>
	<circle class="st0" cx="44.7" cy="39.7" r="8"/>
</g>
</svg>
